<?xml version="1.0" standalone="no"?><!DOCTYPE svg PUBLIC "-//W3C//DTD SVG 1.1//EN" "http://www.w3.org/Graphics/SVG/1.1/DTD/svg11.dtd"><svg t="1524729471803" class="icon" style="" viewBox="0 0 1025 1024" version="1.1" xmlns="http://www.w3.org/2000/svg" p-id="1926" xmlns:xlink="http://www.w3.org/1999/xlink" width="48.046875" height="48"><defs><style type="text/css"></style></defs><path d="M564.926 865.612c-1.659 0-3.393-0.075-5.052-0.353-15.787-2.225-27.929-14.267-30.155-30.080l-39.842-283.95-329.566-46.181c-9.817-1.418-17.512-9.112-18.892-18.893-1.343-9.817 3.922-19.357 12.996-23.342l678.626-301.359c13.414-5.969 28.921-3.105 39.332 7.342 10.458 10.419 13.321 25.881 7.314 39.368l-119.912 270.185c-4.987 11.152-18.161 16.204-29.274 11.263-11.199-4.977-16.24-18.077-11.272-29.273l110.496-248.808-586.43 260.359 259.468 36.413c15.582 2.225 27.939 14.647 30.164 30.155l36.366 259.506 85.494-192.624c4.987-11.188 18.122-16.315 29.312-11.263 11.198 4.977 16.24 18.076 11.272 29.237l-98.241 221.371c-5.784 12.959-18.325 20.932-32.202 20.932z" fill="#FFFFFF" p-id="1927"></path></svg>