<?xml version="1.0" standalone="no"?><!DOCTYPE svg PUBLIC "-//W3C//DTD SVG 1.1//EN" "http://www.w3.org/Graphics/SVG/1.1/DTD/svg11.dtd"><svg t="1517233170245" class="icon" style="" viewBox="0 0 1024 1024" version="1.1" xmlns="http://www.w3.org/2000/svg" p-id="1811" xmlns:xlink="http://www.w3.org/1999/xlink" width="200" height="200"><defs><style type="text/css"></style></defs><path d="M218.112 379.306667v-5.973334c0-23.893333 19.114667-43.392 42.496-43.392h34.005333c23.338667 0 42.453333 19.498667 42.453334 43.392v6.272c0 23.978667 5.973333 26.24 29.354666 26.24h296.021334c21.674667 0 23.850667-2.986667 23.850666-22.954666v-9.6c0-23.893333 19.072-43.392 42.453334-43.392h33.066666c23.338667 0 42.453333 19.498667 42.453334 43.392v7.594666c0 21.418667 7.125333 24.96 27.904 24.96h163.413333c22.144 0.042667 28.416-6.101333 28.416-27.690666V329.642667c0-47.701333-38.229333-86.784-84.992-86.784H84.992C38.229333 242.858667 0 281.941333 0 329.685333v45.44c0 24.490667 7.082667 30.762667 33.28 30.762667h154.368c24.789333 0 30.464-2.688 30.464-26.581333zM804.309333 494.293333v9.216a43.093333 43.093333 0 0 1-42.453333 43.434667h-33.109333a43.093333 43.093333 0 0 1-42.453334-43.434667v-8.618666c0-18.730667-5.290667-23.936-24.149333-23.936H367.573333c-24.149333 0-30.421333 5.333333-30.421333 27.008v5.546666a43.093333 43.093333 0 0 1-42.496 43.434667h-34.048a43.093333 43.093333 0 0 1-42.496-43.434667v-3.456c0-25.386667-6.229333-29.098667-29.354667-29.098666H32.512c-25.856 0-32.512 6.485333-32.512 32.554666v433.664C0 984.96 38.229333 1024 84.992 1024h854.016C985.770667 1024 1024 984.96 1024 937.173333V496.981333c0-19.498667-8.149333-25.984-26.112-25.984h-164.522667c-22.869333-0.042667-29.056 3.925333-29.056 23.296z" fill="#ffffff" p-id="1812"></path><path d="M309.845333 466.944c0 23.381333-14.293333 42.496-31.744 42.496s-31.744-19.114667-31.744-42.496V414.762667c0-23.424 14.293333-42.538667 31.744-42.538667s31.744 19.114667 31.744 42.538667v52.181333zM777.514667 466.944c0 23.381333-14.250667 42.496-31.701334 42.496s-31.744-19.114667-31.744-42.496V414.762667c0-23.424 14.293333-42.538667 31.744-42.538667s31.701333 19.114667 31.701334 42.538667v52.181333zM333.610667 197.461333c27.264-73.770667 97.066667-126.293333 178.858666-126.293333s151.594667 52.48 178.816 126.293333c0 0 5.76 24.32 39.509334 24.32 33.706667 0 33.621333-24.32 33.621333-24.32C734.72 83.754667 633.173333 0 512.469333 0c-120.746667 0-222.250667 83.754667-251.989333 197.461333 0 0-1.834667 21.290667 32.981333 21.290667 34.858667 0 40.149333-21.290667 40.149334-21.290667z" fill="#ffffff" p-id="1813"></path></svg>